<svg id="heart" xmlns="http://www.w3.org/2000/svg" viewBox="0 0 40.3715 36.9475"><defs><style>.cls-1{fill:#d7598b;}</style></defs><title>heart</title><path class="cls-1" d="M39.5223,28.85a11.135,11.135,0,0,0-.0284-11.7538,10.5306,10.5306,0,0,0-11.06-4.6972c-1.15.2391-2.4932,0.643-2.9375-.8483-1.1716-3.9648-2.7724-8.054-6.7116-9.9964C15.274-.1748,10.3176.4117,7.0694,2.3136,1.4111,5.6426.0083,11.9744,1.2137,18.0482a38.7977,38.7977,0,0,0,1.4575,5.1153C3.23,24.7716,6.0942,29.62,4.4575,31.2125c-0.3882.3743-1.305,0.4337-1.2906,1.0551A2.7085,2.7085,0,0,0,4.5983,34.04c5.9083,3.676,13.3272,3.8673,20.0323,3.0121C29.7877,36.4067,36.6279,33.6762,39.5223,28.85Z" transform="translate(-0.8143 -0.5263)"/></svg>