<svg id="Layer_1" data-name="Layer 1" xmlns="http://www.w3.org/2000/svg" viewBox="0 0 127.16 43.5062"><defs><style>.cls-1{fill:#2f2f2f;}.cls-2{fill:#fff;}</style></defs><title>sunglasses</title><path class="cls-1" d="M98.2114,0.2469c-13.3565,0-15.153,2.0308-21.4016,3.3586A70.7051,70.7051,0,0,1,64,4.9334,70.7049,70.7049,0,0,1,51.19,3.6055C44.9416,2.2777,43.1451.2469,29.7886,0.2469S0.42,3.1369.42,3.1369v8.5138S4.013,12.1193,4.3254,15.4c0.1562,1.3278-3.1243,28.3533,23.5105,28.3533,18.9022,0,26.8692-11.3257,29.4467-20.5424,1.1716-4.3741,2.187-9.373,6.7173-9.373s5.5457,4.9989,6.7173,9.373c2.5776,9.2167,10.5446,20.5424,29.4467,20.5424,26.6349,0,23.3543-27.0254,23.5106-28.3533,0.3124-3.2805,3.9054-3.7492,3.9054-3.7492V3.1369S111.5679,0.2469,98.2114.2469Z" transform="translate(-0.42 -0.2469)"/><path class="cls-2" d="M95.9412,3.958A74.2783,74.2783,0,0,0,84.2877,5.2654c-9.8386,2.0572-10.5541,8.1392-9.928,12.969,0.8014,6.0674,3.2889,13.746,10.04,18.4889a1.4323,1.4323,0,0,0,2.3452-.7683h0A109.1707,109.1707,0,0,1,97.52,6.0625h0C98.1427,4.2816,96.7062,3.9312,95.9412,3.958Z" transform="translate(-0.42 -0.2469)"/><path class="cls-2" d="M31.0622,3.93A52.364,52.364,0,0,0,17.4165,5.2654c-5.1018,1.2848-7.0659,3.846-7.6025,9.3914C9.2884,20.088,8.6846,33.923,18.54,39.1175a1.6961,1.6961,0,0,0,2.4437-.9115h0C23.9956,25.1215,25.6055,19.0395,32.545,6.1327h0A1.5059,1.5059,0,0,0,31.0622,3.93Z" transform="translate(-0.42 -0.2469)"/></svg>